<svg width="32" height="32" viewBox="0 0 32 32" fill="none" xmlns="http://www.w3.org/2000/svg">
<path d="M16.0288 0.119873C7.20978 0.119873 0.0584412 7.39181 0.0584412 16.3629C0.0584412 23.5396 4.63444 29.6283 10.98 31.7761C11.7781 31.9265 12.0711 31.4238 12.0711 30.9947C12.0711 30.6074 12.0563 29.3279 12.0494 27.9706C7.60647 28.9532 6.66895 26.0541 6.66895 26.0541C5.94247 24.1766 4.89573 23.6773 4.89573 23.6773C3.44674 22.6692 5.00495 22.6899 5.00495 22.6899C6.60866 22.8042 7.45308 24.3638 7.45308 24.3638C8.87748 26.847 11.1892 26.1291 12.1005 25.7141C12.2438 24.6645 12.6577 23.9474 13.1144 23.542C9.5672 23.1313 5.83828 21.7385 5.83828 15.5145C5.83828 13.7411 6.46214 12.2921 7.48376 11.1546C7.31794 10.7452 6.7713 9.09339 7.63847 6.856C7.63847 6.856 8.97956 6.41944 12.0315 8.521C13.3054 8.1611 14.6716 7.98061 16.0288 7.97442C17.386 7.98061 18.7533 8.1611 20.0296 8.521C23.0778 6.41944 24.4171 6.856 24.4171 6.856C25.2863 9.09339 24.7394 10.7452 24.5736 11.1546C25.5976 12.2921 26.2173 13.7411 26.2173 15.5145C26.2173 21.7533 22.4812 23.127 18.925 23.5291C19.4978 24.0332 20.0082 25.0217 20.0082 26.5372C20.0082 28.7103 19.9897 30.4595 19.9897 30.9947C19.9897 31.427 20.2772 31.9335 21.0867 31.774C27.4288 29.6237 31.9989 23.5372 31.9989 16.3629C31.9989 7.39181 24.8487 0.119873 16.0288 0.119873Z" fill="#D4CDEF"/>
<path d="M6.10724 23.4414C6.07207 23.5224 5.94724 23.5463 5.83352 23.4909C5.71769 23.4379 5.65263 23.3279 5.69018 23.2469C5.72456 23.1638 5.84966 23.1409 5.96523 23.1961C6.08133 23.2493 6.14744 23.3604 6.10724 23.4414Z" fill="#D4CDEF"/>
<path d="M6.75411 24.1752C6.67795 24.2471 6.52906 24.2137 6.42803 24.1002C6.32357 23.987 6.304 23.8355 6.38122 23.7626C6.45977 23.6908 6.60416 23.7244 6.70889 23.8377C6.81335 23.9523 6.83372 24.1026 6.75411 24.1752Z" fill="#D4CDEF"/>
<path d="M7.3838 25.1108C7.28595 25.1799 7.12595 25.1151 7.02704 24.9707C6.92919 24.8262 6.92919 24.653 7.02916 24.5836C7.12833 24.5142 7.28595 24.5766 7.38619 24.72C7.48377 24.8666 7.48377 25.04 7.3838 25.1108Z" fill="#D4CDEF"/>
<path d="M8.24649 26.0146C8.15895 26.1128 7.9725 26.0864 7.83604 25.9525C7.6964 25.8215 7.65753 25.6356 7.74533 25.5374C7.83393 25.439 8.02143 25.4667 8.15895 25.5996C8.29753 25.7303 8.33984 25.9175 8.24649 26.0146Z" fill="#D4CDEF"/>
<path d="M9.43656 26.5393C9.39795 26.6666 9.21838 26.7244 9.03749 26.6703C8.85686 26.6147 8.73865 26.4656 8.77514 26.3371C8.81269 26.209 8.99306 26.1488 9.17527 26.2066C9.35564 26.262 9.47412 26.41 9.43656 26.5393Z" fill="#D4CDEF"/>
<path d="M10.7435 26.6367C10.748 26.7707 10.5946 26.8818 10.4048 26.8839C10.2138 26.8885 10.0594 26.7801 10.0573 26.6483C10.0573 26.513 10.2072 26.403 10.3981 26.3998C10.588 26.396 10.7435 26.5036 10.7435 26.6367Z" fill="#D4CDEF"/>
<path d="M11.9598 26.426C11.9825 26.5567 11.8506 26.6909 11.662 26.7264C11.4766 26.7611 11.305 26.6804 11.2814 26.5508C11.2584 26.4168 11.3928 26.2826 11.5779 26.2479C11.7667 26.2145 11.9357 26.2931 11.9598 26.426Z" fill="#D4CDEF"/>
</svg>
